<svg data-v-0dd9719b="" version="1.0" xmlns="http://www.w3.org/2000/svg" xmlns:xlink="http://www.w3.org/1999/xlink" width="100%" height="100%" viewBox="0 0 340.000000 250.000000" preserveAspectRatio="xMidYMid meet" color-interpolation-filters="sRGB" style="margin: auto;"> <rect data-v-0dd9719b="" x="0" y="0" width="100%" height="100%" fill="#fff" fill-opacity="1" class="background"></rect> <rect data-v-0dd9719b="" x="0" y="0" width="100%" height="100%" fill="url(#watermark)" fill-opacity="1" class="watermarklayer"></rect> <g data-v-0dd9719b="" fill="#333" class="icon-text-wrapper icon-svg-group iconsvg" transform="translate(48.209999084472656,90.3299446105957)"><g class="iconsvg-imagesvg" transform="translate(0,0)"><g><rect fill="#333" fill-opacity="0" stroke-width="2" x="0" y="0" width="59.99999999999999" height="69.34011325551832" class="image-rect"></rect> <svg x="0" y="0" width="59.99999999999999" height="69.34011325551832" filtersec="colorsb2729223722" class="image-svg-svg primary" style="overflow: visible;"><svg xmlns="http://www.w3.org/2000/svg" viewBox="0 0 86.52999877929688 100"><path fill="#2084f7" d="M20.82 87.16L0 75.28V25.04l20.82 12.33v49.79z"></path><path fill="#22cfee" d="M18.95 14.03L0 25.04l20.82 12.33 18.95-10.83-20.82-12.51z"></path><path fill="#23b0f1" d="M86.53 50.55l-.11 24.39L43.03 100l.14-24.56 43.36-24.89z"></path><path fill="#2084f7" d="M24.1 88.87L43.03 100l.14-24.56-19.02-10.58-.05 24.01z"></path><path fill="#22cfee" d="M22.41 12.17L43.06 0l43.28 25.04L65.92 37.2 22.41 12.17z"></path><path fill="#23b0f1" d="M86.37 46.98l-.03-21.94L65.92 37.2l.02 21.81 20.43-12.03z"></path><path fill="#22cfee" d="M60.79 60.12L43.27 70.23 25.75 60.12V39.88l17.52-10.11 17.52 10.11v20.24z"></path></svg></svg> <!----></g></g> <g transform="translate(67,6.69880485534668)"><g data-gra="path-name" fill-rule="" class="tp-name iconsvg-namesvg" transform="translate(0,0)"><g transform="scale(1)"><g><path d="M33.03-2.83L33.03-2.83 16.96-2.83Q16.34-2.83 15.93-3.26 15.52-3.69 15.52-4.32L15.52-4.32 15.52-27.58Q15.52-28.21 15.93-28.64 16.34-29.07 16.96-29.07L16.96-29.07 33.03-29.07Q33.66-29.07 34.09-28.64 34.52-28.21 34.52-27.58L34.52-27.58 34.52-4.32Q34.52-3.69 34.09-3.26 33.66-2.83 33.03-2.83L33.03-2.83ZM39.69 3.92L39.69 3.92 29.43 3.92 29.43 0.99 38.2 0.99 38.2-32.71 13.54-32.71 13.54-35.64 42.61-35.64 42.61-32.71 41.17-32.71 41.17 2.43Q41.17 3.06 40.75 3.49 40.32 3.92 39.69 3.92L39.69 3.92ZM5.08 3.92L5.08 3.92 2.25 3.06 8.37-17.1 1.67-22.54 3.51-24.84 11.03-18.77Q11.79-18.18 11.47-17.19L11.47-17.19 5.08 3.92ZM12.33-29.61L10.39-27.36 2.16-34.42 4.05-36.67 12.33-29.61ZM18.45-26.1L18.45-5.76 31.54-5.76 31.54-26.1 18.45-26.1ZM85.09 3.96L85.09 3.96 76.59 3.96 76.59 0.99 83.66 0.99 83.66-22.27 51.48-22.27 51.48 3.92 48.51 3.92 48.51-23.76Q48.51-24.39 48.94-24.79 49.37-25.2 49.99-25.2L49.99-25.2 66.06-25.2 66.06-29.52 47.34-29.52 47.34-32.45 66.06-32.45 66.06-36.27 69.03-36.27 69.03-32.45 87.66-32.45 87.66-29.52 69.03-29.52 69.03-25.2 85.09-25.2Q85.72-25.2 86.15-24.79 86.58-24.39 86.58-23.76L86.58-23.76 86.58 2.48Q86.58 3.1 86.15 3.53 85.72 3.96 85.09 3.96L85.09 3.96ZM80.5-15.97L80.5-13 69.03-13 69.03-7.42 81-7.42 81-4.46 69.03-4.46 69.03 3.38 66.06 3.38 66.06-4.46 54.13-4.46 54.13-7.42 66.06-7.42 66.06-13 54.59-13 54.59-15.97 72.31-15.97 73.84-20.84 76.63-19.98 75.38-15.97 80.5-15.97ZM62.5-16.88L59.67-16.02 58.45-19.98 61.29-20.84 62.5-16.88ZM132.48-17.01L132.48-17.01 119.47-20.29 107.14-17.19 129.78-17.19Q130.5-17.19 130.95-16.61L130.95-16.61Q131.35-15.97 131.18-15.3L131.18-15.3 129.6-9.9 130.14-9.9Q130.77-9.9 131.2-9.47 131.63-9.04 131.63-8.41L131.63-8.41 131.63 2.43Q131.63 3.06 131.2 3.49 130.77 3.92 130.14 3.92L130.14 3.92 112.81 3.92 112.81 0.94 128.66 0.94 128.66-6.93 108.99-6.93Q108.27-6.93 107.78-7.56L107.78-7.56Q107.33-8.19 107.59-8.87L107.59-8.87 109.22-14.04 112.05-13.14 111.02-9.9 126.54-9.9 127.8-14.22 107.06-14.22 107.06-17.14 106.47-17.01 105.75-19.84 117.99-22.95 117.99-23.8 106.34-23.8 106.34-26.77 117.99-26.77 117.99-29.7 106.61-29.7 106.61-32.67 110.16-32.67 108.86-34.65 111.33-36.27 113.09-33.62 111.64-32.67 117.99-32.67 117.99-36.09 120.96-36.09 120.96-32.67 125.82-32.67 127.53-36.13 130.19-34.83 129.1-32.67 132.3-32.67 132.3-29.7 120.96-29.7 120.96-26.77 132.57-26.77 132.57-23.8 120.96-23.8 120.96-22.95 133.2-19.84 132.48-17.01ZM94.59 4.32L94.59 4.32 91.71 3.73 93.11-3.46 93.11-34.29Q93.11-34.92 93.53-35.35 93.96-35.77 94.59-35.77L94.59-35.77 104.17-35.77Q104.81-35.77 105.23-35.35 105.66-34.92 105.66-34.29L105.66-34.29 105.66 2.56Q105.66 3.19 105.23 3.62 104.81 4.05 104.17 4.05L104.17 4.05 98.41 4.05 98.41 1.08 102.73 1.08 102.73-10.39 96.03-10.39 96.03-3.06 94.59 4.32ZM102.73-24.79L102.73-32.85 96.03-32.85 96.03-24.79 102.73-24.79ZM96.03-21.87L96.03-13.32 102.73-13.32 102.73-21.87 96.03-21.87ZM125.95-4.5L125.95-1.57 106.42-1.57 106.42-4.5 125.95-4.5ZM139.23-17.5L139.23-17.5 138.65-20.38 150.39-22.77 139.91-22.77 139.91-24.93 138.1-24.93 138.1-29.29Q138.1-29.92 138.53-30.35 138.96-30.78 139.59-30.78L139.59-30.78 153.9-30.78 153.9-36.36 156.87-36.36 156.87-35.14 177.84-35.14 177.84-32.22 156.87-32.22 156.87-30.78 176.35-30.78Q176.99-30.78 177.41-30.35 177.84-29.92 177.84-29.29L177.84-29.29 177.84-24.93 176.04-24.93 176.04-22.77 165.51-22.77 177.3-20.38 176.72-17.5 164.07-20.07 164.61-22.77 159.44-22.77 159.44-19.98 178.25-16.16 177.62-13.28 176.49-13.5Q176.58-13.28 176.58-13.05L176.58-13.05 176.58 2.38Q176.58 3.01 176.15 3.44 175.72 3.87 175.09 3.87L175.09 3.87 141.16 3.87Q140.53 3.87 140.11 3.44 139.68 3.01 139.68 2.38L139.68 2.38 139.68-13.05Q139.68-13.32 139.77-13.54L139.77-13.54 138.28-13.28 137.7-16.16 156.51-19.98 156.51-22.77 151.34-22.77 151.88-20.07 139.23-17.5ZM174.87-25.74L174.87-27.81 141.03-27.81 141.03-25.74 174.87-25.74ZM157.95-17.28L144.5-14.54 171.41-14.54 157.95-17.28ZM173.66-9.4L173.66-11.56 142.65-11.56 142.65-9.4 173.66-9.4ZM142.65-6.43L142.65-4.18 173.66-4.18 173.66-6.43 142.65-6.43ZM142.65-1.21L142.65 0.9 173.66 0.9 173.66-1.21 142.65-1.21Z" transform="translate(-1.6700000762939453, 36.66999816894531)"></path></g> <!----> <!----> <!----> <!----> <!----> <!----> <!----></g></g> <g data-gra="path-slogan" fill-rule="" class="tp-slogan iconsvg-slogansvg" fill="#333" transform="translate(5.000007629394531,46.98999786376953)"><rect x="0" height="1" y="3.9750003814697266" width="31.81999969482422"></rect> <rect height="1" y="3.9750003814697266" width="31.81999969482422" x="134.76000213623047"></rect> <g transform="translate(34.81999969482422,0)"><g transform="scale(1)"><path d="M2.06-5.06L6.56-5.06L6.56-8.58L7.73-8.58L7.73 0L6.56 0L6.56-3.98L2.06-3.98L2.06 0L0.89 0L0.89-8.58L2.06-8.58L2.06-5.06ZM10.83-1.03L15.98-1.03L15.98 0L9.66 0L9.66-8.58L15.89-8.58L15.89-7.59L10.83-7.59L10.83-4.92L15.52-4.92L15.52-3.89L10.83-3.89L10.83-1.03ZM18.89-8.58L23.20-1.64L23.20-8.58L24.33-8.58L24.33 0L23.02 0L18.66-6.94L18.61-6.94L18.61 0L17.48 0L17.48-8.58L18.89-8.58ZM31.78 0L30.94-2.48L27.47-2.48L26.58 0L25.41 0L28.64-8.58L29.95-8.58L33.05 0L31.78 0ZM29.20-7.31L27.84-3.52L30.52-3.52L29.25-7.31L29.20-7.31ZM35.48-8.58L39.80-1.64L39.80-8.58L40.92-8.58L40.92 0L39.61 0L35.25-6.94L35.20-6.94L35.20 0L34.08 0L34.08-8.58L35.48-8.58ZM48.23-7.59L45.33-7.59L45.33-8.58L52.27-8.58L52.27-7.59L49.36-7.59L49.36 0L48.23 0L48.23-7.59ZM54.61-1.03L59.77-1.03L59.77 0L53.44 0L53.44-8.58L59.67-8.58L59.67-7.59L54.61-7.59L54.61-4.92L59.30-4.92L59.30-3.89L54.61-3.89L54.61-1.03ZM62.67-8.58L66.98-1.64L66.98-8.58L68.11-8.58L68.11 0L66.80 0L62.44-6.94L62.39-6.94L62.39 0L61.27 0L61.27-8.58L62.67-8.58ZM76.31-3.61L73.69-3.61L73.69-4.59L77.44-4.59L77.44 0L76.69 0L76.41-1.08Q75.42 0.09 73.59 0.14L73.59 0.14Q71.86 0.14 70.92-0.75L70.92-0.75Q69.52-2.06 69.56-4.36L69.56-4.36Q69.89-8.63 73.64-8.81L73.64-8.81Q76.83-8.63 77.30-6L77.30-6L76.17-6Q75.70-7.78 73.59-7.83L73.59-7.83Q70.92-7.64 70.78-4.31L70.78-4.31Q70.78-0.75 73.64-0.75L73.64-0.75Q74.67-0.75 75.42-1.31L75.42-1.31Q76.36-2.06 76.31-3.61L76.31-3.61ZM83.34-3.70L80.53-3.70L80.53 0L79.36 0L79.36-8.58L83.34-8.58Q86.20-8.58 86.20-6.28L86.20-6.28Q86.20-4.88 84.98-4.22L84.98-4.22Q86.02-3.94 86.02-2.58L86.02-2.58L86.11-1.03Q86.06-0.38 86.53-0.19L86.53-0.19L86.53 0L85.08 0Q84.94-0.61 84.89-2.16L84.89-2.16Q84.94-3.70 83.34-3.70L83.34-3.70ZM83.44-7.64L80.53-7.64L80.53-4.69L83.25-4.69Q84.98-4.69 84.98-6.19L84.98-6.19Q84.98-7.64 83.44-7.64L83.44-7.64ZM93.52-3.19L93.52-8.58L94.69-8.58L94.69-3.05Q94.55 0.05 91.17 0.14L91.17 0.14Q88.03 0.05 87.89-2.86L87.89-2.86L87.89-8.58L89.06-8.58L89.06-3.19Q89.11-0.84 91.22-0.80L91.22-0.80Q93.52-0.84 93.52-3.19L93.52-3.19ZM96.66-8.58L97.83-8.58L97.83 0L96.66 0L96.66-8.58Z" transform="translate(-0.890625, 8.8125)"></path></g></g></g></g></g><defs v-gra="od"></defs></svg>